<mxfile host="www.draw.io" modified="2020-02-19T13:16:24.246Z" agent="Mozilla/5.0 (Macintosh; Intel Mac OS X 10_14_6) AppleWebKit/537.36 (KHTML, like Gecko) Chrome/80.0.3987.87 Safari/537.36 Edg/80.0.361.48" etag="r63fxQ035PNRIqG1dWn8" version="12.7.2" type="github">
  <diagram id="2mvlV8NfAr62vqK_ptXQ" name="Page-1">
    <mxGraphModel dx="1426" dy="942" grid="1" gridSize="10" guides="1" tooltips="1" connect="1" arrows="1" fold="1" page="1" pageScale="1" pageWidth="1169" pageHeight="1654" math="0" shadow="0">
      <root>
        <mxCell id="0" />
        <mxCell id="1" parent="0" />
        <mxCell id="0WIxzw6FgY4OJlsIFBhl-4" value="" style="rounded=1;whiteSpace=wrap;html=1;strokeColor=none;fillColor=#f5f5f5;fontColor=#333333;" vertex="1" parent="1">
          <mxGeometry x="360" y="400" width="800" height="140" as="geometry" />
        </mxCell>
        <mxCell id="0WIxzw6FgY4OJlsIFBhl-1" value="" style="rhombus;whiteSpace=wrap;html=1;strokeWidth=2;align=center;" vertex="1" parent="1">
          <mxGeometry x="390" y="360" width="60" height="64" as="geometry" />
        </mxCell>
        <mxCell id="0WIxzw6FgY4OJlsIFBhl-2" value="Verwerken Mutatie" style="shape=step;perimeter=stepPerimeter;whiteSpace=wrap;html=1;fixedSize=1;" vertex="1" parent="1">
          <mxGeometry x="490" y="432" width="190" height="80" as="geometry" />
        </mxCell>
        <mxCell id="0WIxzw6FgY4OJlsIFBhl-3" value="Aanvraag verhoging" style="shape=step;perimeter=stepPerimeter;whiteSpace=wrap;html=1;fixedSize=1;" vertex="1" parent="1">
          <mxGeometry x="480" y="260" width="190" height="80" as="geometry" />
        </mxCell>
        <mxCell id="0WIxzw6FgY4OJlsIFBhl-5" value="" style="rounded=1;whiteSpace=wrap;html=1;strokeColor=none;fillColor=#f5f5f5;fontColor=#333333;" vertex="1" parent="1">
          <mxGeometry x="360" y="240" width="800" height="140" as="geometry" />
        </mxCell>
        <mxCell id="0WIxzw6FgY4OJlsIFBhl-6" value="Hypotheken Beheer" style="shape=umlActor;verticalLabelPosition=bottom;labelBackgroundColor=#ffffff;verticalAlign=top;html=1;outlineConnect=0;" vertex="1" parent="1">
          <mxGeometry x="1070" y="432" width="30" height="60" as="geometry" />
        </mxCell>
        <mxCell id="0WIxzw6FgY4OJlsIFBhl-7" value="Hypotheken Aanvragen" style="shape=umlActor;verticalLabelPosition=bottom;labelBackgroundColor=#ffffff;verticalAlign=top;html=1;outlineConnect=0;" vertex="1" parent="1">
          <mxGeometry x="1070" y="270" width="30" height="60" as="geometry" />
        </mxCell>
      </root>
    </mxGraphModel>
  </diagram>
</mxfile>
